<svg width="24" height="24" xmlns="http://www.w3.org/2000/svg" fill="#F9A107">
<path stroke="null" id="svg_1" d="m12,0.03571c-6.59352,0 -11.96429,5.37077 -11.96429,11.96429c0,6.59352 5.37077,11.96429 11.96429,11.96429c6.59352,0 11.96429,-5.37077 11.96429,-11.96429c0,-6.59352 -5.37077,-11.96429 -11.96429,-11.96429zm0,2.39286c5.30032,0 9.57143,4.27111 9.57143,9.57143c0,5.30032 -4.27111,9.57143 -9.57143,9.57143c-5.30032,0 -9.57143,-4.27111 -9.57143,-9.57143c0,-5.30032 4.27111,-9.57143 9.57143,-9.57143zm5.13623,5.13623l-7.52909,7.52909l-2.74337,-2.74337l-1.69182,1.69182l4.4352,4.4352l9.22091,-9.22091l-1.69182,-1.69182z"/>
</svg>