<svg xmlns="http://www.w3.org/2000/svg" width="44.2" height="31.05" viewBox="0 0 44.2 31.05">
  <path id="group_FILL0_wght400_GRAD0_opsz48" d="M1.9,40V35.3a5.824,5.824,0,0,1,.9-3.175A5.477,5.477,0,0,1,5.3,30a39.642,39.642,0,0,1,6.575-2.3A25.8,25.8,0,0,1,17.9,27a25.482,25.482,0,0,1,6,.7A39.98,39.98,0,0,1,30.45,30a5.628,5.628,0,0,1,2.525,2.125A5.708,5.708,0,0,1,33.9,35.3V40ZM31.1,26.85a49.585,49.585,0,0,1,6.5,1.175A22.911,22.911,0,0,1,42.55,29.8a7.739,7.739,0,0,1,2.6,2.35,5.482,5.482,0,0,1,.95,3.15V40H36.9V35.3a8.093,8.093,0,0,0-1.6-5.175A11.711,11.711,0,0,0,31.1,26.85Zm-13.2-2.9a7.193,7.193,0,0,1-7.5-7.5,7.193,7.193,0,0,1,7.5-7.5,7.193,7.193,0,0,1,7.5,7.5,7.193,7.193,0,0,1-7.5,7.5Zm18-7.5a7.193,7.193,0,0,1-7.5,7.5,11.181,11.181,0,0,1-1.225-.075A5.289,5.289,0,0,1,25.95,23.6a8.206,8.206,0,0,0,1.825-3.075A12.523,12.523,0,0,0,28.4,16.45a11.638,11.638,0,0,0-.625-3.975A10.63,10.63,0,0,0,25.95,9.3a10.552,10.552,0,0,1,1.225-.25,8.426,8.426,0,0,1,1.225-.1,7.193,7.193,0,0,1,7.5,7.5ZM4.9,37h26V35.3a2.859,2.859,0,0,0-.475-1.55A2.614,2.614,0,0,0,29.25,32.7a33.761,33.761,0,0,0-6.05-2.15A24.178,24.178,0,0,0,17.9,30a24.52,24.52,0,0,0-5.325.55A33.464,33.464,0,0,0,6.5,32.7a2.48,2.48,0,0,0-1.15,1.05A2.974,2.974,0,0,0,4.9,35.3Zm13-16.05a4.361,4.361,0,0,0,4.5-4.5,4.361,4.361,0,0,0-4.5-4.5,4.361,4.361,0,0,0-4.5,4.5,4.361,4.361,0,0,0,4.5,4.5Zm0-4.5ZM17.9,30Z" transform="translate(-1.9 -8.95)" fill="#0a0b0d"/>
</svg>
