<svg xmlns="http://www.w3.org/2000/svg" width="51.5" height="51.5" viewBox="0 0 51.5 51.5">
  <path id="schedule_FILL0_wght400_GRAD0_opsz48" d="M39.213,42.174l2.9-2.9-10.236-10.3V16.038H28.012V30.523ZM29.75,55.5a24.916,24.916,0,0,1-9.978-2.028A25.943,25.943,0,0,1,6.028,39.728a25.563,25.563,0,0,1,0-19.956A25.943,25.943,0,0,1,19.772,6.028a25.563,25.563,0,0,1,19.956,0A25.943,25.943,0,0,1,53.472,19.772a25.563,25.563,0,0,1,0,19.956A25.943,25.943,0,0,1,39.728,53.472,24.916,24.916,0,0,1,29.75,55.5Zm0-25.75Zm0,21.887A21.071,21.071,0,0,0,45.2,45.2a21.071,21.071,0,0,0,6.438-15.45A21.071,21.071,0,0,0,45.2,14.3,21.071,21.071,0,0,0,29.75,7.862,21.071,21.071,0,0,0,14.3,14.3,21.071,21.071,0,0,0,7.862,29.75,21.071,21.071,0,0,0,14.3,45.2,21.071,21.071,0,0,0,29.75,51.638Z" transform="translate(-4 -4)" fill="#f9a107"/>
</svg>
