<svg xmlns="http://www.w3.org/2000/svg" width="51.5" height="41.2" viewBox="0 0 51.5 41.2">
  <path id="mail_FILL0_wght400_GRAD0_opsz48" d="M7.862,49.2a3.706,3.706,0,0,1-2.7-1.159A3.706,3.706,0,0,1,4,45.338V11.863a3.706,3.706,0,0,1,1.159-2.7A3.706,3.706,0,0,1,7.862,8H51.638a3.706,3.706,0,0,1,2.7,1.159,3.706,3.706,0,0,1,1.159,2.7V45.338A3.96,3.96,0,0,1,51.638,49.2ZM29.75,29.759,7.862,15.4V45.338H51.638V15.4Zm0-3.862L51.38,11.863H8.184ZM7.862,15.4V45.338h0Z" transform="translate(-4 -8)" fill="#f9a107"/>
</svg>
