<svg xmlns="http://www.w3.org/2000/svg" width="33.979" height="33.979" viewBox="0 0 33.979 33.979">
  <path id="work_history_FILL0_wght400_GRAD0_opsz48" d="M6.448,32.554h0V12.444h0v20.11Zm0,2.448a2.348,2.348,0,0,1-1.713-.734A2.348,2.348,0,0,1,4,32.554V12.444a2.348,2.348,0,0,1,.734-1.713A2.348,2.348,0,0,1,6.448,10H14.2V6.448a2.371,2.371,0,0,1,.734-1.693A2.318,2.318,0,0,1,16.645,4h7.343a2.318,2.318,0,0,1,1.713.755,2.371,2.371,0,0,1,.734,1.693V10h7.75a2.509,2.509,0,0,1,2.448,2.448v9.708a12.857,12.857,0,0,0-1.163-.816,12.644,12.644,0,0,0-1.285-.693v-8.2H6.448v20.11H20.072a9.8,9.8,0,0,0,.408,1.265A9.471,9.471,0,0,0,21.051,35ZM16.645,10h7.343V6.448H16.645ZM30.107,37.979a7.939,7.939,0,0,1-7.873-7.873,7.939,7.939,0,0,1,7.873-7.873,7.939,7.939,0,0,1,7.873,7.873,7.939,7.939,0,0,1-7.873,7.873Zm3.019-3.753,1.1-1.1-3.427-3.1V24.967H29.087v5.548Z" transform="translate(-4 -4)" fill="#0a0b0d"/>
</svg>
