<svg xmlns="http://www.w3.org/2000/svg" width="38.37" height="38.37" viewBox="0 0 38.37 38.37">
  <path id="icons8-linkedin" d="M7.263,3A4.262,4.262,0,0,0,3,7.263V37.107A4.262,4.262,0,0,0,7.263,41.37H37.107a4.262,4.262,0,0,0,4.263-4.263V7.263A4.262,4.262,0,0,0,37.107,3Zm0,4.263H37.107V37.107H7.263Zm5.925,2.806c-1.827,0-2.923,1.1-2.923,2.56A2.545,2.545,0,0,0,13,15.186c1.827,0,2.923-1.094,2.923-2.556A2.548,2.548,0,0,0,13.188,10.069Zm-2.777,7.852V32.843H15.79V17.922Zm9.817,0V32.843h5.379V24.687c0-2.428,1.732-2.777,2.252-2.777s1.911.522,1.911,2.777v8.156h5.2V24.687c0-4.683-2.081-6.765-4.684-6.765S26.3,18.788,25.607,20V17.922Z" transform="translate(-3 -3)" fill="#F4F6F7"/>
</svg>
