<svg xmlns="http://www.w3.org/2000/svg" width="51.5" height="51.5" viewBox="0 0 51.5 51.5">
  <path id="call_FILL0_wght400_GRAD0_opsz48" d="M54.281,57.5a38.583,38.583,0,0,1-17.345-4.292A58.893,58.893,0,0,1,21.45,42.05,58.893,58.893,0,0,1,10.292,26.564,38.583,38.583,0,0,1,6,9.219,3.176,3.176,0,0,1,9.219,6H19.233a2.53,2.53,0,0,1,1.752.68A3.161,3.161,0,0,1,21.951,8.5l1.931,9.012a5.145,5.145,0,0,1-.036,1.824,2.756,2.756,0,0,1-.751,1.395l-7.153,7.224a59.385,59.385,0,0,0,8.977,11.588,49.611,49.611,0,0,0,11.266,8.369l6.8-7.01A3.955,3.955,0,0,1,44.625,39.8a3.306,3.306,0,0,1,1.86-.107L55,41.549a3.125,3.125,0,0,1,2.5,3.076v9.656A3.176,3.176,0,0,1,54.281,57.5ZM13.8,24.025,19.59,18.16h0l-1.645-7.868H10.292a24.62,24.62,0,0,0,.858,6.116A57.655,57.655,0,0,0,13.8,24.025ZM53.208,53.208h0V45.555h0l-7.367-1.5h0L40.19,49.99a35.7,35.7,0,0,0,6.366,2.217A33.568,33.568,0,0,0,53.208,53.208ZM40.19,49.99ZM13.8,24.025Z" transform="translate(-6 -6)" fill="#f9a107"/>
</svg>
