<svg xmlns="http://www.w3.org/2000/svg" width="32.632" height="31" viewBox="0 0 32.632 31">
  <path id="work_FILL0_wght400_GRAD0_opsz48" d="M6.447,35a2.348,2.348,0,0,1-1.713-.734A2.348,2.348,0,0,1,4,32.553V12.443a2.348,2.348,0,0,1,.734-1.713A2.348,2.348,0,0,1,6.447,10H14.2V6.447a2.348,2.348,0,0,1,.734-1.713A2.348,2.348,0,0,1,16.645,4h7.342a2.348,2.348,0,0,1,1.713.734,2.348,2.348,0,0,1,.734,1.713V10h7.75a2.509,2.509,0,0,1,2.447,2.447V32.553A2.509,2.509,0,0,1,34.184,35Zm10.2-25h7.342V6.447H16.645ZM6.447,32.553H34.184V12.443H6.447V32.553Zm0,0h0V12.443h0V32.553Z" transform="translate(-4 -4)" fill="#0a0b0d"/>
</svg>
